<svg xmlns="http://www.w3.org/2000/svg" viewBox="0 0 64 64" role="img" aria-labelledby="title desc">
  <title id="title">Model Development Dashboard</title>
  <desc id="desc">Monogram MD logo for Model Development Dashboard</desc>
  <defs>
    <linearGradient id="bg" x1="0" x2="1" y1="1" y2="0">
      <stop offset="0" stop-color="#0f172a" />
      <stop offset="1" stop-color="#1d4ed8" />
    </linearGradient>
  </defs>
  <rect x="4" y="4" width="56" height="56" rx="14" ry="14" fill="url(#bg)" />
  <path
    d="M18 42V22h4.5l5.5 11.5L33.5 22H38v20h-4V30.8L29 38h-2l-5-7.2V42h-4z"
    fill="#e5e7eb"
  />
  <path
    d="M44 22c4.5 0 8 3.6 8 8.4V42h-4v-3.2c-1.3 2.1-3.4 3.4-6 3.4-4.4 0-7.6-3.4-7.6-8.1 0-4.8 3.2-8.1 7.6-8.1 2 0 3.8.8 5.1 2.2C46.4 23 45.4 22 44 22zm-3.4 13.5c2.2 0 3.9-1.8 3.9-4.4 0-2.6-1.7-4.4-3.9-4.4s-3.9 1.8-3.9 4.4c0 2.6 1.7 4.4 3.9 4.4z"
    fill="#bfdbfe"
  />
</svg>
